<svg width="24" height="24" viewBox="0 0 24 24" fill="none" xmlns="http://www.w3.org/2000/svg">
<path d="M12 0C5.38477 0 0 5.38477 0 12C0 18.6152 5.38477 24 12 24C18.6152 24 24 18.6152 24 12C24 5.38477 18.6152 0 12 0ZM12 3C16.998 3 21 7.00195 21 12C21 16.998 16.998 21 12 21C7.00195 21 3 16.998 3 12C3 7.00195 7.00195 3 12 3ZM12 5.8125C11.0684 5.8125 10.3125 6.56836 10.3125 7.5C10.3125 8.43164 11.0684 9.1875 12 9.1875C12.9316 9.1875 13.6875 8.43164 13.6875 7.5C13.6875 6.56836 12.9316 5.8125 12 5.8125ZM9.71484 10.5C9.31641 10.5176 9 10.8457 9 11.25C9 11.666 9.33398 12 9.75 12H10.5V16.5H9.75C9.33398 16.5 9 16.834 9 17.25C9 17.666 9.33398 18 9.75 18H14.25C14.666 18 15 17.666 15 17.25C15 16.834 14.666 16.5 14.25 16.5H13.5V10.5H9.75C9.73828 10.5 9.72656 10.5 9.71484 10.5Z" fill="#BEBAB3"/>
</svg>
