<svg width="32" height="26" viewBox="0 0 32 26" fill="none" xmlns="http://www.w3.org/2000/svg">
<path fill-rule="evenodd" clip-rule="evenodd" d="M22.856 21.8157C22.6446 23.6351 18.7268 24.712 14.111 24.2195C9.49506 23.727 5.92038 21.8507 6.13174 20.0313C6.34311 18.2119 10.2609 17.135 14.8768 17.6275C19.4927 18.12 23.0673 19.9963 22.856 21.8157Z" fill="#BEBAB3"/>
<path fill-rule="evenodd" clip-rule="evenodd" d="M4.23271 15.736C3.62458 15.0307 0.674838 9.23676 3.20362 0.837203C13.6035 -0.896593 22.6165 2.33512 27.2957 4.76536C28.2505 6.37508 26.6201 18.468 23.1283 19.653C20.7866 20.2734 8.5335 20.1024 4.23271 15.736Z" fill="#BEBAB3"/>
<path fill-rule="evenodd" clip-rule="evenodd" d="M21.6045 21.3629C21.4089 22.991 17.7842 23.9547 13.5135 23.514C9.24285 23.0732 5.93553 21.3942 6.13108 19.7661C6.32664 18.138 9.95139 17.1743 14.222 17.615C18.4927 18.0557 21.8 19.7348 21.6045 21.3629Z" fill="#BEBAB3"/>
<path fill-rule="evenodd" clip-rule="evenodd" d="M20.2685 20.8534C20.3072 20.5473 20.1799 20.2278 19.8938 19.9132C19.6078 19.5986 19.1687 19.2951 18.6015 19.02C18.0344 18.7449 17.3503 18.5036 16.5883 18.3098C15.8264 18.1161 15.0015 17.9737 14.1608 17.8908C13.3201 17.808 12.4801 17.7862 11.6887 17.8268C10.8973 17.8674 10.17 17.9696 9.54838 18.1275C8.92677 18.2855 8.423 18.496 8.06584 18.7472C7.70869 18.9984 7.50515 19.2852 7.46684 19.5914C7.42835 19.8975 7.5558 20.217 7.84191 20.5315C8.12803 20.846 8.5672 21.1495 9.13435 21.4245C9.7015 21.6996 10.3855 21.9409 11.1474 22.1346C11.9092 22.3283 12.734 22.4706 13.5746 22.5535C14.4151 22.6363 15.2551 22.6581 16.0464 22.6175C16.8377 22.5769 17.5649 22.4748 18.1865 22.3169C18.8081 22.1591 19.3119 21.9486 19.6691 21.6975C20.0263 21.4464 20.23 21.1596 20.2685 20.8534Z" fill="url(#paint0_radial_92_5350)"/>
<path fill-rule="evenodd" clip-rule="evenodd" d="M18.8955 19.6678C18.7531 20.5456 16.5958 21.1097 14.0802 20.9271C11.5646 20.7446 9.63856 19.884 9.78101 19.0063C9.92345 18.1286 12.0807 17.5644 14.5963 17.747C17.1119 17.9296 19.0379 18.7901 18.8955 19.6678Z" fill="#BEBAB3"/>
<path fill-rule="evenodd" clip-rule="evenodd" d="M18.3021 19.3994C18.1782 20.0986 16.3019 20.548 14.1138 20.4026C11.9258 20.2571 10.2505 19.5716 10.3744 18.8724C10.4983 18.1731 12.3747 17.7237 14.5627 17.8692C16.7508 18.0146 18.426 18.7001 18.3021 19.3994Z" fill="#BEBDAE"/>
<path fill-rule="evenodd" clip-rule="evenodd" d="M2.75956 15.7958C2.15144 15.0905 -0.798306 9.29658 1.73048 0.897017C12.1303 -0.836779 21.1433 2.39493 25.8225 4.82517C26.7774 6.43489 25.147 18.5278 21.6551 19.7128C19.3135 20.3332 7.06036 20.1622 2.75956 15.7958Z" fill="#BEBAB3"/>
<path fill-rule="evenodd" clip-rule="evenodd" d="M4.15984 15.3329C3.66451 14.5683 0.890867 10.2623 2.77301 1.97229C13.4219 0.402824 20.5046 3.74297 24.9127 5.75511C25.408 7.20387 23.7735 18.0694 21.0989 18.7133C18.8206 19.3169 7.42876 18.9547 4.15984 15.3329Z" fill="url(#paint1_linear_92_5350)"/>
<path fill-rule="evenodd" clip-rule="evenodd" d="M5.29897 4.58807L4.50649 4.78927C4.40743 5.39293 3.16921 10.3025 4.35792 12.4757C5.74475 14.3671 6.38862 14.7293 6.24004 14.528C4.55601 12.2342 4.0112 8.73307 5.29897 4.58807Z" fill="#B5A794"/>
<path fill-rule="evenodd" clip-rule="evenodd" d="M5.22636 4.49096C5.22636 4.49096 3.22361 10.4158 5.79126 14.0041C7.74267 16.2155 14.0591 17.9679 19.2457 16.7162C20.2215 15.7148 22.4296 10.2907 20.3755 7.2865C19.6052 6.24338 10.3103 3.03063 5.22636 4.49096Z" fill="#BEBAB3"/>
<path fill-rule="evenodd" clip-rule="evenodd" d="M5.49707 4.70881C5.49707 4.70881 3.56543 10.4233 6.04191 13.8842C7.92404 16.0171 14.0162 17.7072 19.0187 16.5C19.9597 15.5341 22.0895 10.3026 20.1083 7.40509C19.3654 6.39901 10.4005 3.30033 5.49707 4.70881Z" fill="#BEBAB3"/>
<path fill-rule="evenodd" clip-rule="evenodd" d="M4.85327 10.4635C4.85327 10.4635 8.96421 5.91606 12.877 8.81354C14.462 13.1195 20.257 14.1256 20.257 14.1256L19.1178 16.4194C14.8087 17.667 6.53728 15.0914 6.14104 14.1256C5.7448 13.1598 6.04198 14.6488 4.85327 10.4635Z" fill="url(#paint2_linear_92_5350)"/>
<path fill-rule="evenodd" clip-rule="evenodd" d="M6.88398 12.5108L6.83765 14.5788C8.79807 16.622 14.8151 17.5749 16.6413 16.8999C16.5886 16.5571 16.5358 15.7913 16.4368 15.4693C15.149 15.2279 9.13835 14.5139 6.88398 12.5108Z" fill="#BEBAB3"/>
<path fill-rule="evenodd" clip-rule="evenodd" d="M25.0119 5.83557C25.0119 5.83557 23.3774 5.87583 23.3279 5.87583C23.2783 5.87583 23.5755 9.29645 23.3774 10.544C23.1793 11.7915 22.684 14.7292 22.3868 15.4938C22.0896 16.2585 20.3561 18.7133 20.2075 18.8742C20.0589 19.0352 20.6037 18.834 21.4457 18.6328C23.7241 16.4999 24.8633 11.3891 25.0119 5.83557Z" fill="#B5A794"/>
<path fill-rule="evenodd" clip-rule="evenodd" d="M7.08203 12.9183L7.13158 14.4073C9.11276 16.1377 14.8582 17.184 16.2945 16.7012C16.245 16.3792 16.1955 15.7353 16.1955 15.7353C16.1955 15.7353 9.01367 14.6488 7.08203 12.9183Z" fill="#C7BDA8"/>
<path fill-rule="evenodd" clip-rule="evenodd" d="M20.1084 18.7938C20.1084 18.7938 23.9717 16.339 22.9811 6.03681C22.1391 5.35267 20.8513 4.58807 20.8513 4.58807C20.8513 4.58807 23.3278 5.5539 23.4764 5.87584C23.724 6.3185 23.8726 16.9829 20.1084 18.7938Z" fill="#BEBAB3"/>
<path fill-rule="evenodd" clip-rule="evenodd" d="M7.67651 19.9205L8.1223 19.6389C9.70724 21.8925 16.1956 22.1339 16.6909 22.0534C17.1862 21.9729 11.1931 23.5022 7.67651 19.9205Z" fill="#FBFBFB"/>
<path d="M7.97363 13.7232C7.97363 13.3207 7.97363 14.9305 7.97363 14.9305" stroke="#BEBAB3" stroke-width="0.832097" stroke-linecap="round" stroke-linejoin="round"/>
<path d="M14.3135 15.5341C14.3135 15.1317 14.3135 16.7414 14.3135 16.7414" stroke="#BEBAB3" stroke-width="0.832097" stroke-linecap="round" stroke-linejoin="round"/>
<path fill-rule="evenodd" clip-rule="evenodd" d="M21.6838 18.0929L11.777 23.4321C9.98687 24.0368 7.76311 22.1362 9.47541 20.3849L19.3489 14.8504L19.3822 12.2541L24.9194 9.96838L26.4204 12.11L24.0521 13.7751L24.3857 14.3598L27.7214 13.1654L29.0556 15.7259L24.7526 18.4047L21.6838 18.0929Z" fill="#BEBAB3"/>
<path fill-rule="evenodd" clip-rule="evenodd" d="M20.8137 17.4449L10.9069 22.7842C9.11675 23.3888 6.89299 21.4883 8.60529 19.7369L18.4788 14.2025L18.5121 11.6061L24.0493 9.32043L25.5503 11.4621L23.182 13.1271L23.5156 13.7119L26.8512 12.5175L28.1855 15.078L23.8825 17.7568L20.8137 17.4449Z" fill="#BEBAB3"/>
<path fill-rule="evenodd" clip-rule="evenodd" d="M20.7471 16.5567L11.007 21.9229C9.65051 22.4468 8.36073 21.1279 9.33918 20.0799L19.4795 14.6053L19.4462 12.0306L23.7491 10.2419L24.3829 11.326L22.2147 13.1689L23.2154 14.5511L26.4844 13.4399L27.0848 14.7679L23.6824 16.8277L20.7471 16.5567Z" fill="#C9C9C9"/>
<path fill-rule="evenodd" clip-rule="evenodd" d="M20.6803 16.5838C20.647 16.5025 19.9131 16.2315 20.18 15.8521L16.9778 17.5866C17.0445 17.8576 17.3447 18.3183 17.3447 18.3454C17.3447 18.3725 20.5803 16.6651 20.6803 16.5838Z" fill="#BEBAB3"/>
<path fill-rule="evenodd" clip-rule="evenodd" d="M18.1453 17.966L11.007 21.9229C9.65051 22.4469 8.36073 21.1279 9.33918 20.08L16.6442 16.123C17.845 16.385 18.0785 17.2162 18.1453 17.966Z" fill="#BEBAB3"/>
<path fill-rule="evenodd" clip-rule="evenodd" d="M17.0111 16.7464L10.1397 20.4052C10.1397 20.4052 9.63936 20.2154 9.70608 20.1883C9.77279 20.1612 16.5775 16.394 16.5775 16.394L17.0111 16.7464Z" fill="#BEBAB3"/>
<path fill-rule="evenodd" clip-rule="evenodd" d="M11.8636 20.0513C12.1042 20.3938 11.8708 20.8729 11.3427 21.1206C10.8145 21.3684 10.1906 21.2914 9.94999 20.9488C9.70941 20.6063 9.94282 20.1272 10.471 19.8795C10.9992 19.6317 11.6231 19.7087 11.8636 20.0513Z" fill="url(#paint3_linear_92_5350)"/>
<path fill-rule="evenodd" clip-rule="evenodd" d="M11.6209 20.1651C11.8005 20.4208 11.6263 20.7783 11.2322 20.9631C10.838 21.148 10.3724 21.0906 10.1929 20.8349C10.0134 20.5793 10.1876 20.2218 10.5817 20.0369C10.9758 19.8521 11.4414 19.9095 11.6209 20.1651Z" fill="url(#paint4_linear_92_5350)"/>
<path fill-rule="evenodd" clip-rule="evenodd" d="M23.4823 10.7839L20.1133 12.2203V14.253L21.3808 15.9333L23.5824 16.1501L26.5511 14.6595L26.2509 14.0362L22.9152 15.2558L21.4809 13.2231L23.7491 11.1905L23.4823 10.7839Z" fill="#BEBAB3"/>
<path fill-rule="evenodd" clip-rule="evenodd" d="M23.6156 11.0008L20.3467 12.5456L20.4801 14.1717L21.5809 15.6352L23.5822 16.1502L26.551 14.6596L26.3175 14.2259L23.0819 15.4455L21.5475 13.2503L23.749 11.1905L23.6156 11.0008Z" fill="#BEBAB3"/>
<path fill-rule="evenodd" clip-rule="evenodd" d="M4.1278 17.1245L11.616 10.7283C12.512 10.5307 13.216 10.3331 13.5744 10.6971L16.9921 7.95145L17.1073 5.4866L21.9074 2.99054L25.0563 5.58021C24.9027 5.86101 22.253 9.57388 22.061 9.7923C21.8306 9.76111 19.757 9.88591 19.3729 9.88591C19.0657 9.82351 16.4161 12.1948 16.2625 12.4444C16.6209 12.7772 16.5953 13.3908 16.3777 13.8172L8.77429 20.2758C6.36786 21.0038 3.76939 19.9845 4.1278 17.1245Z" fill="#BEBAB3" fill-opacity="0.302752"/>
<path fill-rule="evenodd" clip-rule="evenodd" d="M3.32727 16.5669L10.8154 10.1707C11.7115 9.97309 12.4155 9.77549 12.7739 10.1395L16.1916 7.39383L16.3068 4.92898L21.1069 2.43292L24.2558 5.02259C24.1022 5.30339 21.4525 9.01627 21.2605 9.23468C21.0301 9.20349 18.9564 9.32829 18.5724 9.32829C18.2652 9.26589 15.6156 11.6371 15.462 11.8868C15.8204 12.2196 15.7948 12.8332 15.5771 13.2596L7.97375 19.7181C5.56732 20.4462 2.96886 19.4269 3.32727 16.5669Z" fill="#BEBAB3"/>
<path fill-rule="evenodd" clip-rule="evenodd" d="M12.741 11.2645C12.6867 11.2645 17.1942 7.69042 17.1942 7.69042L17.3028 5.52832L20.887 3.4986L23.0593 5.21946L20.6155 8.44054L18.1717 8.3523L13.7728 12.147L12.741 11.2645Z" fill="#C2C2C2"/>
<path fill-rule="evenodd" clip-rule="evenodd" d="M13.2842 11.3086C13.4471 11.2204 17.3572 7.95514 17.3572 7.95514L17.6287 8.26401L13.6643 11.5734L13.2842 11.3086Z" fill="white" fill-opacity="0.981651"/>
<path fill-rule="evenodd" clip-rule="evenodd" d="M10.3162 11.8555C10.3162 11.8867 11.3146 11.0443 11.6218 10.8883C12.8506 10.4203 14.3098 11.7619 14.4251 12.6668C14.1947 12.8228 13.1962 13.8212 13.1962 13.8212C12.5818 12.5732 11.7754 12.0427 10.3162 11.8555Z" fill="#BEBAB3"/>
<path fill-rule="evenodd" clip-rule="evenodd" d="M5.13794 16.3388C6.87575 16.2947 7.74468 17.6626 7.63605 18.5451C8.28775 17.9273 13.2297 13.7796 13.2297 13.7796C13.2659 12.397 11.7815 11.4116 10.2428 11.8823L5.13794 16.3388Z" fill="#BEBAB3"/>
<path fill-rule="evenodd" clip-rule="evenodd" d="M12.2983 12.0541C13.5203 11.5338 12.8623 11.4856 13.1695 11.3296C13.2307 10.8616 14.3098 11.762 14.425 12.6668C14.1946 12.8228 13.1962 13.8212 13.1962 13.8212C12.5818 12.5732 12.7258 12.484 12.2983 12.0541Z" fill="#BEBAB3"/>
<path fill-rule="evenodd" clip-rule="evenodd" d="M17.7915 5.79307L20.2353 7.86691C20.2353 7.86691 22.5705 5.17533 22.5162 5.17533C22.4619 5.17533 20.887 3.98395 20.887 3.98395L17.7915 5.79307Z" fill="url(#paint5_linear_92_5350)"/>
<path fill-rule="evenodd" clip-rule="evenodd" d="M10.7317 11.9705L5.95264 15.9417L6.82156 16.3389L6.87585 15.8094L11.1118 12.147L10.7317 11.9705Z" fill="#BEBAB3"/>
<path fill-rule="evenodd" clip-rule="evenodd" d="M12.0079 11.0439L11.0847 11.5955C11.0847 11.5955 11.6006 11.7278 11.6278 11.7058C11.6549 11.6837 12.4967 11.0439 12.4967 11.0439C12.4967 11.0439 11.9536 11.1101 12.0079 11.0439Z" fill="#BEBAB3"/>
<defs>
<radialGradient id="paint0_radial_92_5350" cx="0" cy="0" r="1" gradientUnits="userSpaceOnUse" gradientTransform="translate(15.1696 19.1989) rotate(5.63018) scale(7.70986 2.81523)">
<stop stop-color="#2A2535"/>
<stop offset="1" stop-color="#E3E1CF"/>
</radialGradient>
<linearGradient id="paint1_linear_92_5350" x1="14.1478" y1="10.1217" x2="8.46973" y2="4.98069" gradientUnits="userSpaceOnUse">
<stop stop-color="#E3E1CF"/>
<stop offset="1" stop-color="white"/>
</linearGradient>
<linearGradient id="paint2_linear_92_5350" x1="14.3856" y1="8.33505" x2="14.0136" y2="14.6402" gradientUnits="userSpaceOnUse">
<stop stop-color="white" stop-opacity="0.490196"/>
<stop offset="1" stop-color="white" stop-opacity="0.176471"/>
</linearGradient>
<linearGradient id="paint3_linear_92_5350" x1="11.9876" y1="20.9069" x2="10.568" y2="19.7017" gradientUnits="userSpaceOnUse">
<stop stop-color="#666565"/>
<stop offset="1" stop-color="white"/>
</linearGradient>
<linearGradient id="paint4_linear_92_5350" x1="9.92601" y1="19.9463" x2="11.1635" y2="21.0986" gradientUnits="userSpaceOnUse">
<stop stop-color="#666565"/>
<stop offset="1" stop-color="white"/>
</linearGradient>
<linearGradient id="paint5_linear_92_5350" x1="17.9392" y1="7.56355" x2="21.7806" y2="3.91474" gradientUnits="userSpaceOnUse">
<stop stop-color="#666565"/>
<stop offset="1" stop-color="white"/>
</linearGradient>
</defs>
</svg>
