<svg width="21" height="40" viewBox="0 0 21 40" fill="none" xmlns="http://www.w3.org/2000/svg">
<path d="M17.0363 39.1208L17.0287 39.1208C16.6818 39.122 16.339 39.0454 16.0256 38.8967C15.7124 38.7481 15.4365 38.5314 15.218 38.2622C15.2178 38.262 15.2176 38.2618 15.2175 38.2616L1.58764 21.3301L1.58766 21.3301L1.58441 21.3262C1.24287 20.9107 1.05615 20.3895 1.05615 19.8516C1.05615 19.3143 1.24246 18.7937 1.58331 18.3784C1.58368 18.3779 1.58405 18.3775 1.58441 18.377L15.693 1.44672L15.6934 1.44623C16.0877 0.971877 16.6543 0.673576 17.2685 0.616947C17.8827 0.560318 18.4942 0.750001 18.9685 1.14427C19.4429 1.53853 19.7412 2.10508 19.7978 2.71928C19.8544 3.33336 19.6649 3.94477 19.2708 4.41908C19.2707 4.41918 19.2706 4.41928 19.2705 4.41938L6.65602 19.5455L6.39347 19.8603L6.65071 20.1795L18.8424 35.3062L18.8424 35.3063L18.8475 35.3125C19.1315 35.6533 19.3119 36.0684 19.3673 36.5086C19.4228 36.9487 19.351 37.3956 19.1604 37.7962C18.9699 38.1968 18.6686 38.5345 18.2921 38.7692C17.9157 39.004 17.4799 39.126 17.0363 39.1208V39.1208Z" fill="#D9D9D9" stroke="black"/>
</svg>
