<svg width="60" height="60" viewBox="0 0 60 60" fill="none" xmlns="http://www.w3.org/2000/svg">
<path d="M24.5675 54.4075L35.775 35L44.605 50.2925C40.354 53.3608 35.2426 55.0083 30 55C28.135 55 26.3175 54.795 24.5675 54.4075ZM19.725 52.8C16.513 51.3478 13.6433 49.2346 11.3033 46.5982C8.96337 43.9619 7.20567 40.8617 6.14497 37.5H28.5575L19.725 52.7975V52.8ZM5.12497 32.5C4.7672 28.9932 5.15782 25.4503 6.27099 22.1056C7.38416 18.7609 9.19454 15.6906 11.5825 13.0975L22.78 32.5H5.12497ZM15.3975 9.70753C19.6478 6.63973 24.7582 4.99225 30 5.00003C31.865 5.00003 33.6825 5.20503 35.4325 5.59253L24.225 25L15.3975 9.70753ZM40.275 7.20003C43.487 8.65224 46.3566 10.7655 48.6966 13.4018C51.0366 16.0382 52.7943 19.1384 53.855 22.5H31.4425L40.275 7.20003ZM54.875 27.5C55.2327 31.0069 54.8421 34.5498 53.7289 37.8944C52.6158 41.2391 50.8054 44.3095 48.4175 46.9025L37.22 27.5H54.88H54.875Z" fill="#FDFDFD"/>
</svg>
