<svg width="60" height="60" viewBox="0 0 60 60" fill="none" xmlns="http://www.w3.org/2000/svg">
<path d="M45 7.5H15C13.0109 7.5 11.1032 8.29018 9.6967 9.6967C8.29018 11.1032 7.5 13.0109 7.5 15V45C7.5 46.9891 8.29018 48.8968 9.6967 50.3033C11.1032 51.7098 13.0109 52.5 15 52.5H45C46.9891 52.5 48.8968 51.7098 50.3033 50.3033C51.7098 48.8968 52.5 46.9891 52.5 45V15C52.5 13.0109 51.7098 11.1032 50.3033 9.6967C48.8968 8.29018 46.9891 7.5 45 7.5ZM15 12.5H45C45.663 12.5 46.2989 12.7634 46.7678 13.2322C47.2366 13.7011 47.5 14.337 47.5 15V35.9L39.5 29.075C38.2605 28.0551 36.7052 27.4975 35.1 27.4975C33.4948 27.4975 31.9395 28.0551 30.7 29.075L12.5 44.25V15C12.5 14.337 12.7634 13.7011 13.2322 13.2322C13.7011 12.7634 14.337 12.5 15 12.5Z" fill="#FFF9FA"/>
<path d="M20 25C22.0711 25 23.75 23.3211 23.75 21.25C23.75 19.1789 22.0711 17.5 20 17.5C17.9289 17.5 16.25 19.1789 16.25 21.25C16.25 23.3211 17.9289 25 20 25Z" fill="#FFF9FA"/>
</svg>
