<svg width="24" height="24" viewBox="0 0 24 24" fill="none" xmlns="http://www.w3.org/2000/svg">
<path d="M12 24C18.5529 24 24 18.5647 24 12C24 5.44707 18.5411 0 11.9882 0C5.42347 0 0 5.44707 0 12C0 18.5647 5.43527 24 12 24ZM12 22C6.44702 22 2.0117 17.5529 2.0117 12C2.0117 6.45882 6.43527 2.00001 11.9882 2.00001C17.5293 2.00001 21.9881 6.45882 22 12C22.0118 17.5529 17.5411 22 12 22ZM6.82349 17.3294H17.1529C18.3882 17.3294 19.0352 16.7059 19.0352 15.4823V9.20002C19.0352 7.9647 18.3882 7.34121 17.1529 7.34121H15.7411C15.2705 7.34121 15.1294 7.25884 14.8588 6.95294L14.3764 6.41178C14.0823 6.08235 13.7764 5.90591 13.1646 5.90591H10.7647C10.1529 5.90591 9.84704 6.08235 9.5411 6.41178L9.05877 6.95294C8.78816 7.2353 8.64701 7.34121 8.17642 7.34121H6.82349C5.56468 7.34121 4.92939 7.9647 4.92939 9.20002V15.4823C4.92939 16.7059 5.56468 17.3294 6.82349 17.3294ZM11.9176 15.6588C9.96465 15.6588 8.37645 14.0941 8.37645 12.1177C8.37645 10.1647 9.96465 8.60003 11.9176 8.60003C13.8706 8.60003 15.4352 10.1647 15.4352 12.1177C15.4352 14.1294 13.8706 15.6588 11.9176 15.6588ZM16.5411 10.553C16.1058 10.553 15.7411 10.2 15.7411 9.75293C15.7411 9.30588 16.1058 8.95295 16.5411 8.95295C16.9764 8.95295 17.3294 9.30588 17.3294 9.75293C17.3411 10.2 16.9764 10.553 16.5411 10.553ZM11.9176 14.6353C13.2941 14.6353 14.4235 13.5176 14.4235 12.1177C14.4235 10.7294 13.2941 9.61178 11.9176 9.61178C10.5294 9.61178 9.39995 10.7294 9.39995 12.1177C9.39995 13.5176 10.5294 14.6353 11.9176 14.6353Z" fill="#BEBAB3"/>
</svg>
